<mxfile host="app.diagrams.net" modified="2022-12-12T23:04:34.252Z" agent="5.0 (X11)" etag="GkU5jOf8PyaC2Z7qMv5x" version="20.6.2" type="github">
  <diagram name="Page-1" id="74b105a0-9070-1c63-61bc-23e55f88626e">
    <mxGraphModel dx="3375" dy="1830" grid="1" gridSize="10" guides="1" tooltips="1" connect="1" arrows="1" fold="1" page="1" pageScale="1.5" pageWidth="1169" pageHeight="826" background="none" math="0" shadow="0">
      <root>
        <mxCell id="0" style=";html=1;" />
        <mxCell id="1" style=";html=1;" parent="0" />
        <mxCell id="Dv1WIKetxkHTB2Em4Z0x-17" value="" style="rounded=1;whiteSpace=wrap;html=1;strokeWidth=3;fontSize=30;fillColor=none;strokeColor=#FF5314;" vertex="1" parent="1">
          <mxGeometry x="122" y="209" width="1510" height="820" as="geometry" />
        </mxCell>
        <mxCell id="Dv1WIKetxkHTB2Em4Z0x-10" value="&lt;div&gt;Client&lt;/div&gt;&lt;div&gt;&lt;br&gt;&lt;/div&gt;" style="outlineConnect=0;gradientColor=none;fontColor=#545B64;strokeColor=none;fillColor=#879196;dashed=0;verticalLabelPosition=bottom;verticalAlign=top;align=center;html=1;fontSize=12;fontStyle=0;aspect=fixed;shape=mxgraph.aws4.illustration_desktop;pointerEvents=1;labelBackgroundColor=#ffffff;" vertex="1" parent="1">
          <mxGeometry x="470" y="452.5" width="100" height="91" as="geometry" />
        </mxCell>
        <mxCell id="Dv1WIKetxkHTB2Em4Z0x-12" value="" style="dashed=0;outlineConnect=0;html=1;align=center;labelPosition=center;verticalLabelPosition=bottom;verticalAlign=top;shape=mxgraph.webicons.apache;gradientColor=#DFDEDE" vertex="1" parent="1">
          <mxGeometry x="992" y="458" width="80" height="80" as="geometry" />
        </mxCell>
        <mxCell id="Dv1WIKetxkHTB2Em4Z0x-13" value="" style="shape=image;html=1;verticalAlign=top;verticalLabelPosition=bottom;labelBackgroundColor=#ffffff;imageAspect=0;aspect=fixed;image=https://cdn2.iconfinder.com/data/icons/boxicons-logos/24/bxl-django-128.png" vertex="1" parent="1">
          <mxGeometry x="1072" y="504" width="48" height="48" as="geometry" />
        </mxCell>
        <mxCell id="Dv1WIKetxkHTB2Em4Z0x-14" value="" style="rounded=0;whiteSpace=wrap;html=1;dashed=1;strokeWidth=5;fillColor=none;" vertex="1" parent="1">
          <mxGeometry x="840" y="408.5" width="380" height="473" as="geometry" />
        </mxCell>
        <mxCell id="Dv1WIKetxkHTB2Em4Z0x-15" value="" style="endArrow=classic;startArrow=classic;html=1;rounded=1;jumpSize=60;strokeColor=default;sketch=0;strokeWidth=4;" edge="1" parent="1" target="Dv1WIKetxkHTB2Em4Z0x-12" source="Dv1WIKetxkHTB2Em4Z0x-10">
          <mxGeometry width="50" height="50" relative="1" as="geometry">
            <mxPoint x="894" y="494" as="sourcePoint" />
            <mxPoint x="1000" y="494" as="targetPoint" />
          </mxGeometry>
        </mxCell>
        <mxCell id="Dv1WIKetxkHTB2Em4Z0x-16" value="https" style="edgeLabel;html=1;align=center;verticalAlign=middle;resizable=0;points=[];fontSize=30;" vertex="1" connectable="0" parent="Dv1WIKetxkHTB2Em4Z0x-15">
          <mxGeometry x="-0.1285" y="-2" relative="1" as="geometry">
            <mxPoint x="10" y="-26" as="offset" />
          </mxGeometry>
        </mxCell>
        <mxCell id="Dv1WIKetxkHTB2Em4Z0x-18" value="&lt;font color=&quot;#FF642B&quot;&gt;Draw.io&lt;/font&gt;" style="text;html=1;align=center;verticalAlign=middle;resizable=0;points=[];autosize=1;strokeColor=none;fillColor=none;fontSize=30;" vertex="1" parent="1">
          <mxGeometry x="280" y="269" width="120" height="50" as="geometry" />
        </mxCell>
        <mxCell id="Dv1WIKetxkHTB2Em4Z0x-35" style="edgeStyle=orthogonalEdgeStyle;rounded=1;sketch=0;jumpSize=60;orthogonalLoop=1;jettySize=auto;html=1;strokeColor=#FF6E30;strokeWidth=4;fontSize=30;fontColor=#FF642B;" edge="1" parent="1" source="Dv1WIKetxkHTB2Em4Z0x-19" target="Dv1WIKetxkHTB2Em4Z0x-12">
          <mxGeometry relative="1" as="geometry" />
        </mxCell>
        <mxCell id="Dv1WIKetxkHTB2Em4Z0x-19" value="" style="sketch=0;pointerEvents=1;shadow=0;dashed=0;html=1;strokeColor=none;fillColor=#505050;labelPosition=center;verticalLabelPosition=bottom;verticalAlign=top;outlineConnect=0;align=center;shape=mxgraph.office.servers.application_server_blue;strokeWidth=3;fontSize=30;fontColor=#FF642B;" vertex="1" parent="1">
          <mxGeometry x="996.68" y="722.5" width="70.64" height="86" as="geometry" />
        </mxCell>
        <mxCell id="Dv1WIKetxkHTB2Em4Z0x-34" style="edgeStyle=orthogonalEdgeStyle;rounded=1;sketch=0;jumpSize=60;orthogonalLoop=1;jettySize=auto;html=1;strokeColor=#FF6E30;strokeWidth=4;fontSize=30;fontColor=#FF642B;" edge="1" parent="1" source="Dv1WIKetxkHTB2Em4Z0x-20" target="Dv1WIKetxkHTB2Em4Z0x-19">
          <mxGeometry relative="1" as="geometry" />
        </mxCell>
        <mxCell id="Dv1WIKetxkHTB2Em4Z0x-20" value="&lt;b&gt;OBS&lt;/b&gt;" style="text;html=1;align=center;verticalAlign=middle;resizable=0;points=[];autosize=1;strokeColor=#050300;fillColor=none;fontSize=30;fontColor=#FF642B;strokeWidth=4;" vertex="1" parent="1">
          <mxGeometry x="480" y="740.5" width="90" height="50" as="geometry" />
        </mxCell>
        <mxCell id="Dv1WIKetxkHTB2Em4Z0x-11" value="" style="sketch=0;outlineConnect=0;fontColor=#232F3E;gradientColor=none;fillColor=#2E27AD;strokeColor=none;dashed=0;verticalLabelPosition=bottom;verticalAlign=top;align=center;html=1;fontSize=12;fontStyle=0;aspect=fixed;pointerEvents=1;shape=mxgraph.aws4.rds_postgresql_instance_alt;" vertex="1" parent="1">
          <mxGeometry x="1120" y="512.5" width="31" height="31" as="geometry" />
        </mxCell>
        <mxCell id="Dv1WIKetxkHTB2Em4Z0x-21" value="&lt;font style=&quot;font-size: 20px;&quot;&gt;HLS (HTTP Live Streaming)&lt;/font&gt;" style="edgeLabel;html=1;align=center;verticalAlign=middle;resizable=0;points=[];fontSize=30;" vertex="1" connectable="0" parent="1">
          <mxGeometry x="770.0047368421054" y="528" as="geometry" />
        </mxCell>
        <mxCell id="Dv1WIKetxkHTB2Em4Z0x-22" value="&lt;div&gt;&lt;font style=&quot;font-size: 30px;&quot;&gt;Send Stream data &lt;br&gt;&lt;/font&gt;&lt;/div&gt;&lt;div&gt;&lt;font style=&quot;font-size: 30px;&quot;&gt;as .m3u8 and .ts files&lt;/font&gt;&lt;/div&gt;" style="text;html=1;align=center;verticalAlign=middle;resizable=0;points=[];autosize=1;strokeColor=none;fillColor=none;fontSize=30;fontColor=#FF642B;labelBackgroundColor=default;" vertex="1" parent="1">
          <mxGeometry x="615" y="720.5" width="310" height="90" as="geometry" />
        </mxCell>
        <mxCell id="Dv1WIKetxkHTB2Em4Z0x-32" value="nginx" style="text;html=1;align=center;verticalAlign=middle;resizable=0;points=[];autosize=1;strokeColor=none;fillColor=none;fontSize=30;fontColor=#FF642B;" vertex="1" parent="1">
          <mxGeometry x="982" y="814.5" width="100" height="50" as="geometry" />
        </mxCell>
        <mxCell id="Dv1WIKetxkHTB2Em4Z0x-33" value="&lt;div&gt;&lt;font style=&quot;font-size: 30px;&quot;&gt;Send Stream data &lt;br&gt;&lt;/font&gt;&lt;/div&gt;&lt;div&gt;as https through HLS&lt;br&gt;&lt;/div&gt;" style="text;html=1;align=center;verticalAlign=middle;resizable=0;points=[];autosize=1;strokeColor=none;fillColor=none;fontSize=30;fontColor=#FF642B;labelBackgroundColor=default;" vertex="1" parent="1">
          <mxGeometry x="900" y="600" width="300" height="90" as="geometry" />
        </mxCell>
      </root>
    </mxGraphModel>
  </diagram>
</mxfile>
